<?xml version="1.0" encoding="UTF-8" standalone="no"?>
<!DOCTYPE svg PUBLIC "-//W3C//DTD SVG 1.1//EN" "http://www.w3.org/Graphics/SVG/1.1/DTD/svg11.dtd">
<!--Generated by Intaglio, www.PurgatoryDesign.com-->
<svg version="1.1" viewBox="0,0,238,359" width="238" height="359" xmlns="http://www.w3.org/2000/svg" xmlns:xlink="http://www.w3.org/1999/xlink"><path d="M113.377,29.093 C113.377,29.093,110.215,25.961,107.421,24.997 C105.609,24.373,137.081,13.5809,145.819,0.3029 C146.541,-0.7991,150.051,4.5369,149.615,10.2289 C149.241,15.0689,142.169,38.277,142.169,38.277 C142.169,38.277,152.715,39.021,163.141,36.167 C161.403,41.379,147.009,53.167,147.009,53.167 C147.009,53.167,158.763,68.985,159.483,70.063 C160.203,71.143,157.381,74.141,155.945,74.141 C154.505,74.141,148.001,102.597,148.001,103.677 C148.001,104.755,135.329,107.807,134.969,108.889 C134.609,109.967,149.055,113.213,160.565,142.699 C160.565,142.699,153.013,163.197,138.267,167.513 C138.267,167.513,115.253,167.153,123.165,148.453 C123.165,148.453,86.819,141.901,87.193,143.637 C87.563,145.373,108.537,152.201,114.743,153.937 C115.459,154.249,115.239,157.537,115.239,157.537 C115.239,157.537,92.293,163.017,93.271,163.865 C96.003,166.225,115.947,163.223,116.601,163.619 C117.261,164.013,117.153,164.735,117.595,165.977 C118.041,167.217,105.507,173.947,106.179,175.903 C106.853,177.861,120.113,169.833,121.071,169.821 C122.029,169.811,125.065,169.771,125.041,170.815 C125.025,171.861,119.583,180.495,120.575,181.487 C121.567,182.479,128.889,172.925,129.881,172.427 C130.875,171.933,133.275,171.869,134.721,172.677 C134.721,174.291,133.975,177.889,134.475,178.261 C136.583,177.269,137.453,175.531,139.189,171.063 C142.909,171.807,162.769,154.683,165.239,141.981 C165.747,141.775,169.223,156.667,169.223,156.667 C169.223,156.667,171.331,152.201,172.325,148.105 C172.723,146.463,202.123,149.183,207.517,149.183 C212.911,149.183,224.753,148.365,232.523,142.195 C233.413,141.485,234.965,140.973,237.893,142.925 C232.767,152.453,183.691,169.075,178.297,169.793 C174.147,174.191,180.251,179.317,179.517,182.005 C173.727,186.043,172.189,190.799,164.375,196.417 C161.689,207.651,156.313,218.157,157.535,219.621 C201.895,231.739,205.443,282.845,201.991,296.071 C200.713,298.559,197.929,299.283,196.863,299.817 C198.081,305.119,193.643,320.709,193.643,320.709 C193.643,320.709,219.137,311.409,236.797,320.697 C230.293,325.305,228.523,330.051,228.523,330.051 C228.523,330.051,215.141,328.365,205.243,330.555 C194.849,332.853,171.327,350.247,141.021,356.157 C136.099,355.609,135.333,353.421,135.881,352.325 C136.425,351.231,141.349,352.325,142.583,350.545 C144.521,347.841,138.393,345.215,136.753,346.747 C156.775,309.879,125.765,282.139,121.439,282.305 C118.593,282.417,121.517,284.515,121.367,285.817 C90.039,312.831,90.007,326.819,90.369,328.257 C90.727,329.697,27.7854,322.785,27.7854,322.785 C27.7854,322.785,26.0334,335.417,19.4734,340.511 C15.2494,343.787,10.8314,350.575,10.9754,354.143 C11.0434,355.939,7.7674,356.921,7.7674,356.921 C7.2674,358.395,5.5774,358.671,4.1574,358.343 C8.3114,332.741,9.0814,328.257,9.4074,322.133 C9.6254,313.487,4.3754,297.295,3.6094,297.187 C2.8434,297.077,2.4054,299.703,2.4054,299.703 C2.4054,299.703,0.5454,300.029,0.1074,299.485 C1.8594,283.183,3.8274,270.819,4.0454,268.415 C31.8374,270.491,42.5554,273.337,54.5934,270.819 C57.1074,266.773,61.6734,244.107,61.6734,244.107 L64.9094,245.547 L68.145,217.855 L55.5634,205.987 C55.5634,205.987,75.255,223.757,109.653,221.197 C143.035,218.717,162.149,199.853,160.163,183.225 C155.073,191.167,141.859,208.871,105.903,213.899 C104.071,214.123,105.299,216.143,103.697,216.361 C89.177,218.347,60.2614,209.287,51.9654,199.159 C42.5954,187.723,40.2834,164.239,48.7294,147.737 C45.8654,146.865,46.0854,147.445,45.8554,144.859 C45.6194,142.271,61.2094,118.795,84.091,115.961 C85.083,115.841,85.577,108.889,85.577,108.889 C85.577,108.889,79.127,103.429,77.139,100.201 C75.283,97.187,75.279,87.421,75.279,87.421 L71.927,90.399 L65.6294,82.289 L63.8634,83.943 C63.8634,83.943,50.1214,70.723,49.8074,67.905 C48.5974,64.709,50.5834,39.889,113.377,29.093"/><path fill="#fff" d="M89.033,71.24 C89.033,71.24,110.101,51.226,115.369,48.768 C120.635,46.31,125.549,45.608,126.953,44.204 C128.359,42.8,125.197,36.128,124.143,36.128 C123.091,36.128,112.207,43.852,110.451,47.716 C108.695,51.576,87.279,68.43,87.981,69.836"/><path fill="#fff" d="M92.545,110.914 L120.635,119.34 L120.283,121.096 L90.439,116.182 Z"/><path fill="#fffffe" d="M156.798,229.592 C156.798,229.592,131.518,262.246,132.57,263.648 C133.626,265.052,138.894,258.028,140.296,256.978 C141.698,255.926,146.616,255.926,146.616,255.926 C146.616,255.926,158.2,240.826,159.256,241.176 C160.31,241.53,164.874,246.094,164.874,246.094 C164.874,246.094,152.234,256.978,152.936,258.384 C153.64,259.788,156.448,259.788,156.448,259.788 C156.448,259.788,168.736,251.712,169.792,252.412 C170.844,253.116,174.352,256.626,174.352,256.626 C174.352,256.626,165.224,264.352,165.224,265.754 C165.224,267.16,176.458,263.648,176.458,263.648 C176.458,263.648,180.672,268.914,179.62,269.62 C178.568,270.318,174.002,272.428,174.002,272.428 L175.408,274.534 L181.026,273.83 L181.726,277.692 L178.92,279.098 L178.92,281.906 L183.482,282.26 L183.832,287.174 L181.376,286.82 L181.376,289.632 L183.482,289.982 L182.782,294.896 L185.588,295.246 C185.588,295.246,186.294,273.83,183.482,263.296 C180.672,252.764,162.418,230.292,156.798,229.592"/><path fill="#ff4013" d="M185.303,135.069 C183.695,134.571,181.852,132.73,181.3,131.071 C181.001,130.172,180.998,129.943,181.037,108.637 L181.075,87.11 L181.548,86.112 C182.178,84.783,183.143,83.78,184.459,83.088 C185.489,82.547,185.602,82.522,187.432,82.43 C189.294,82.337,189.344,82.325,189.781,81.888 C190.35,81.319,190.496,80.667,190.501,78.683 L190.505,77.087 L204.76,77.087 L219.015,77.087 L219.022,78.609 C219.03,80.659,219.176,81.326,219.738,81.888 C220.191,82.341,220.225,82.349,222.095,82.442 C224.155,82.544,224.771,82.729,225.954,83.601 C226.872,84.277,227.881,85.642,228.223,86.67 C228.518,87.553,228.521,87.875,228.483,109.092 L228.445,130.619 L227.972,131.617 C227.347,132.936,226.377,133.946,225.06,134.65 L223.99,135.222 L204.983,135.25 C189.023,135.273,185.868,135.245,185.303,135.069 Z M208.324,121.831 C209.391,121.166,209.431,120.985,209.487,116.636 L209.537,112.751 L213.422,112.701 C217.111,112.654,217.334,112.635,217.827,112.327 C218.824,111.706,218.928,111.347,218.991,108.298 C219.055,105.266,218.938,104.67,218.132,103.897 C217.525,103.316,216.906,103.236,212.975,103.228 L209.534,103.222 L209.486,99.398 C209.44,95.806,209.418,95.538,209.114,94.971 C208.56,93.935,208.026,93.792,204.69,93.792 C202.131,93.792,201.817,93.82,201.36,94.089 C200.711,94.471,200.32,95.004,200.15,95.734 C200.076,96.055,200.014,97.87,200.012,99.769 L200.008,103.222 L196.556,103.225 C194.657,103.227,192.841,103.29,192.521,103.364 C191.79,103.533,191.258,103.925,190.876,104.574 C190.607,105.03,190.579,105.345,190.579,107.904 C190.579,111.24,190.721,111.773,191.757,112.328 C192.324,112.631,192.592,112.654,196.184,112.699 L200.008,112.747 L200.015,116.189 C200.022,120.016,200.107,120.733,200.621,121.291 C201.404,122.142,201.891,122.243,204.983,122.197 C207.583,122.158,207.845,122.129,208.324,121.831 Z M186.954,74.444 C186.675,74.305,186.308,74.003,186.137,73.772 C185.836,73.365,185.826,73.173,185.785,67.209 C185.738,60.337,185.743,60.302,186.777,59.607 L187.282,59.268 L204.747,59.268 L222.213,59.268 L222.766,59.643 C223.786,60.337,223.767,60.193,223.767,67.063 L223.767,73.24 L223.032,73.976 L222.296,74.711 L204.878,74.704 C188.783,74.697,187.422,74.678,186.954,74.444 Z"/></svg>
