<?xml version="1.0" encoding="UTF-8" standalone="no"?>
<!DOCTYPE svg PUBLIC "-//W3C//DTD SVG 1.1//EN" "http://www.w3.org/Graphics/SVG/1.1/DTD/svg11.dtd">
<!--Generated by Intaglio, www.PurgatoryDesign.com-->
<svg version="1.1" viewBox="0,0,243,359" width="243" height="359"
    xmlns="http://www.w3.org/2000/svg"
    xmlns:xlink="http://www.w3.org/1999/xlink">
    <path fill="#5699ff" d="M113.377,29.093 C113.377,29.093,110.215,25.961,107.421,24.997 C105.609,24.373,137.081,13.5809,145.819,0.3029 C146.541,-0.7991,150.051,4.5369,149.615,10.2289 C149.241,15.0689,142.169,38.277,142.169,38.277 C142.169,38.277,152.715,39.021,163.141,36.167 C161.403,41.379,147.009,53.167,147.009,53.167 C147.009,53.167,158.763,68.985,159.483,70.063 C160.203,71.143,157.381,74.141,155.945,74.141 C154.505,74.141,148.001,102.597,148.001,103.677 C148.001,104.755,135.329,107.807,134.969,108.889 C134.609,109.967,149.055,113.213,160.565,142.699 C160.565,142.699,153.013,163.197,138.267,167.513 C138.267,167.513,115.253,167.153,123.165,148.453 C123.165,148.453,86.819,141.901,87.193,143.637 C87.563,145.373,108.537,152.201,114.743,153.937 C115.459,154.249,115.239,157.537,115.239,157.537 C115.239,157.537,92.293,163.017,93.271,163.865 C96.003,166.225,115.947,163.223,116.601,163.619 C117.261,164.013,117.153,164.735,117.595,165.977 C118.041,167.217,105.507,173.947,106.179,175.903 C106.853,177.861,120.113,169.833,121.071,169.821 C122.029,169.811,125.065,169.771,125.041,170.815 C125.025,171.861,119.583,180.495,120.575,181.487 C121.567,182.479,128.889,172.925,129.881,172.427 C130.875,171.933,133.275,171.869,134.721,172.677 C134.721,174.291,133.975,177.889,134.475,178.261 C136.583,177.269,137.453,175.531,139.189,171.063 C142.909,171.807,162.769,154.683,165.239,141.981 C165.747,141.775,169.223,156.667,169.223,156.667 C169.223,156.667,171.331,152.201,172.325,148.105 C172.723,146.463,202.123,149.183,207.517,149.183 C212.911,149.183,224.753,148.365,232.523,142.195 C233.413,141.485,234.965,140.973,237.893,142.925 C232.767,152.453,183.691,169.075,178.297,169.793 C174.147,174.191,180.251,179.317,179.517,182.005 C173.727,186.043,172.189,190.799,164.375,196.417 C161.689,207.651,156.313,218.157,157.535,219.621 C201.895,231.739,205.443,282.845,201.991,296.071 C200.713,298.559,197.929,299.283,196.863,299.817 C198.081,305.119,193.643,320.709,193.643,320.709 C193.643,320.709,219.137,311.409,236.797,320.697 C230.293,325.305,228.523,330.051,228.523,330.051 C228.523,330.051,215.141,328.365,205.243,330.555 C194.849,332.853,171.327,350.247,141.021,356.157 C136.099,355.609,135.333,353.421,135.881,352.325 C136.425,351.231,141.349,352.325,142.583,350.545 C144.521,347.841,138.393,345.215,136.753,346.747 C156.775,309.879,125.765,282.139,121.439,282.305 C118.593,282.417,121.517,284.515,121.367,285.817 C90.039,312.831,90.007,326.819,90.369,328.257 C90.727,329.697,27.7854,322.785,27.7854,322.785 C27.7854,322.785,26.0334,335.417,19.4734,340.511 C15.2494,343.787,10.8314,350.575,10.9754,354.143 C11.0434,355.939,7.7674,356.921,7.7674,356.921 C7.2674,358.395,5.5774,358.671,4.1574,358.343 C8.3114,332.741,9.0814,328.257,9.4074,322.133 C9.6254,313.487,4.3754,297.295,3.6094,297.187 C2.8434,297.077,2.4054,299.703,2.4054,299.703 C2.4054,299.703,0.5454,300.029,0.1074,299.485 C1.8594,283.183,3.8274,270.819,4.0454,268.415 C31.8374,270.491,42.5554,273.337,54.5934,270.819 C57.1074,266.773,61.6734,244.107,61.6734,244.107 L64.9094,245.547 L68.145,217.855 L55.5634,205.987 C55.5634,205.987,75.255,223.757,109.653,221.197 C143.035,218.717,162.149,199.853,160.163,183.225 C155.073,191.167,141.859,208.871,105.903,213.899 C104.071,214.123,105.299,216.143,103.697,216.361 C89.177,218.347,60.2614,209.287,51.9654,199.159 C42.5954,187.723,40.2834,164.239,48.7294,147.737 C45.8654,146.865,46.0854,147.445,45.8554,144.859 C45.6194,142.271,61.2094,118.795,84.091,115.961 C85.083,115.841,85.577,108.889,85.577,108.889 C85.577,108.889,79.127,103.429,77.139,100.201 C75.283,97.187,75.279,87.421,75.279,87.421 L71.927,90.399 L65.6294,82.289 L63.8634,83.943 C63.8634,83.943,50.1214,70.723,49.8074,67.905 C48.5974,64.709,50.5834,39.889,113.377,29.093"/>
    <path fill="#fff" d="M89.033,71.24 C89.033,71.24,110.101,51.226,115.369,48.768 C120.635,46.31,125.549,45.608,126.953,44.204 C128.359,42.8,125.197,36.128,124.143,36.128 C123.091,36.128,112.207,43.852,110.451,47.716 C108.695,51.576,87.279,68.43,87.981,69.836"/>
    <path fill="#fff" d="M92.545,110.914 L120.635,119.34 L120.283,121.096 L90.439,116.182 Z"/>
    <path fill="#fffffe" d="M156.798,229.592 C156.798,229.592,131.518,262.246,132.57,263.648 C133.626,265.052,138.894,258.028,140.296,256.978 C141.698,255.926,146.616,255.926,146.616,255.926 C146.616,255.926,158.2,240.826,159.256,241.176 C160.31,241.53,164.874,246.094,164.874,246.094 C164.874,246.094,152.234,256.978,152.936,258.384 C153.64,259.788,156.448,259.788,156.448,259.788 C156.448,259.788,168.736,251.712,169.792,252.412 C170.844,253.116,174.352,256.626,174.352,256.626 C174.352,256.626,165.224,264.352,165.224,265.754 C165.224,267.16,176.458,263.648,176.458,263.648 C176.458,263.648,180.672,268.914,179.62,269.62 C178.568,270.318,174.002,272.428,174.002,272.428 L175.408,274.534 L181.026,273.83 L181.726,277.692 L178.92,279.098 L178.92,281.906 L183.482,282.26 L183.832,287.174 L181.376,286.82 L181.376,289.632 L183.482,289.982 L182.782,294.896 L185.588,295.246 C185.588,295.246,186.294,273.83,183.482,263.296 C180.672,252.764,162.418,230.292,156.798,229.592"/>
    <path fill="#ff4013" d="M243,25.1017 C243,27.3975,241.139,29.2585,238.843,29.2585 L222.996,29.2585 L222.996,46.9247 L233.647,46.9247 C235.943,46.9247,237.804,48.7857,237.804,51.0815 C237.804,53.3774,235.943,55.2383,233.647,55.2383 L222.996,55.2383 L222.996,72.9046 L228.451,72.9046 C230.747,72.9046,232.608,74.7655,232.608,77.0614 C232.608,79.3572,230.747,81.2181,228.451,81.2181 L222.996,81.2181 L222.996,90.5994 C228.304,95.4634,231.309,102.255,231.309,109.536 C231.309,123.718,219.771,135.256,205.589,135.256 C191.407,135.256,179.869,123.718,179.869,109.536 C179.869,102.255,182.874,95.4634,188.183,90.5994 L188.183,23.8027 C188.183,14.2047,195.991,6.39621,205.589,6.39621 C214.214,6.39621,221.389,12.7023,222.757,20.9449 L238.843,20.9449 C241.139,20.9449,243,22.8059,243,25.1017 Z"/>
    <path fill="#fff" d="M222.996,109.536 C222.996,104.133,220.549,99.1273,216.284,95.8032 C215.273,95.0158,214.682,93.8059,214.682,92.5245 L214.682,23.8027 C214.682,18.7889,210.603,14.7098,205.589,14.7098 C200.575,14.7098,196.496,18.7889,196.496,23.8027 L196.496,92.5245 C196.496,93.8061,195.905,95.0158,194.894,95.8032 C190.629,99.1273,188.183,104.133,188.183,109.536 C188.183,119.134,195.991,126.943,205.589,126.943 C215.187,126.943,222.996,119.134,222.996,109.536 Z"/>
    <path fill="#ff4013" d="M215.202,109.536 C215.202,114.837,210.889,119.149,205.589,119.149 C200.289,119.149,195.977,114.837,195.977,109.536 C195.977,105.724,198.207,102.423,201.432,100.87 L201.432,48.7433 C201.432,46.4475,203.293,44.5866,205.589,44.5866 C207.885,44.5866,209.746,46.4475,209.746,48.7433 L209.746,100.87 C212.971,102.423,215.202,105.724,215.202,109.536 Z"/>
</svg>
